<?xml version="1.0" encoding="UTF-8" standalone="no"?>
<svg width="121px" height="121px" viewBox="0 0 121 121" version="1.1" xmlns="http://www.w3.org/2000/svg" xmlns:xlink="http://www.w3.org/1999/xlink" xmlns:sketch="http://www.bohemiancoding.com/sketch/ns">
    <!-- Generator: Sketch 3.1.1 (8761) - http://www.bohemiancoding.com/sketch -->
    <title>Vector 1</title>
    <desc>Created with Sketch.</desc>
    <defs></defs>
    <g id="Page-1" stroke="none" stroke-width="1" fill="none" fill-rule="evenodd" sketch:type="MSPage">
        <path d="M8,49.3 C6.97363276,74.1087891 17.8999996,85.0175781 17.8999996,85.0175781 L17.9,117.9 L32.7,98.5 C40.6,103.4 49.9,106.2 59.9,106.2 C88.7,106.2 112,82.9 112,54.1 C112.1,25.4 88.7,2 59.9,2 C32.7,2 9.02636724,24.4912109 8,49.3 Z M57.9,72.2 L46.4,72.2 L46.4,68.1 C44.4,69.8 42.6,71 40.9,71.9 C39.2,72.8 37.3,73.2 35,73.2 C31.3,73.2 28.5,72 26.4,69.7 C24.3,67.4 23.3,63.9 23.3,59.3 L23.3,35.3 L34.9,35.3 L34.9,53.6 C34.9,55.5 34.9,57.1 35,58.3 C35.1,59.5 35.3,60.5 35.7,61.4 C36.1,62.2 36.6,62.7 37.3,63.1 C38,63.5 39.1,63.7 40.4,63.7 C41.2,63.7 42.2,63.5 43.3,63.1 C44.4,62.7 45.4,62.2 46.4,61.5 L46.4,35.3 L57.9,35.3 L57.9,72.2 L57.9,72.2 Z M94,67.5 C91,71.1 87.3,72.9 82.9,72.9 C81.1,72.9 79.5,72.7 78.1,72.3 C76.8,71.9 75.3,71.2 73.8,70.4 L73.8,85.8 L62.3,85.8 L62.3,35.3 L73.8,35.3 L73.8,39.1 C75.5,37.7 77.2,36.5 79,35.6 C80.8,34.7 82.8,34.3 85.1,34.3 C89.4,34.3 92.7,36 95,39.4 C97.3,42.8 98.5,47.4 98.5,53.3 C98.4,59.1 96.9,63.8 94,67.5 L94,67.5 Z M79.8,43.2 C78.8,43.2 77.8,43.4 76.7,43.7 C75.7,44 74.7,44.5 73.7,45.2 L73.7,63.8 C74.3,64.1 75,64.2 75.7,64.4 C76.4,64.5 77.3,64.6 78.3,64.6 C81.1,64.6 83.2,63.7 84.6,61.9 C86,60.1 86.6,57.3 86.6,53.6 C86.6,50 86,47.4 84.9,45.8 C83.9,44 82.2,43.2 79.8,43.2 L79.8,43.2 Z" id="Shape" fill="#049CBE" sketch:type="MSShapeGroup"></path>
    </g>
</svg>